<svg version="1.1" viewBox="0.0 0.0 959.8241469816273 586.002624671916" fill="none" stroke="none" stroke-linecap="square" stroke-miterlimit="10" xmlns:xlink="http://www.w3.org/1999/xlink" xmlns="http://www.w3.org/2000/svg"><clipPath id="p.0"><path d="m0 0l959.82416 0l0 586.0026l-959.82416 0l0 -586.0026z" clip-rule="nonzero"/></clipPath><g clip-path="url(#p.0)"><path fill="#0e2b2f" d="m0 0l959.82416 0l0 586.0026l-959.82416 0z" fill-rule="evenodd"/><path fill="#fbdfdc" d="m269.29135 586.01575l0 -586.01575l447.62204 586.01575z" fill-rule="evenodd"/><path stroke="#fbdfdc" stroke-width="1.0" stroke-linejoin="round" stroke-linecap="butt" d="m269.29135 586.01575l0 -586.01575l447.62204 586.01575z" fill-rule="evenodd"/><path fill="#fbdfdc" d="m0 0l269.29135 0l0 586.01575l-269.29135 0z" fill-rule="evenodd"/><path stroke="#fbdfdc" stroke-width="1.0" stroke-linejoin="round" stroke-linecap="butt" d="m0 0l269.29135 0l0 586.01575l-269.29135 0z" fill-rule="evenodd"/><path fill="#ffffff" fill-opacity="0.4372" d="m753.684 52.16062l12.119629 -20.94945l12.11969 20.94945z" fill-rule="evenodd"/><path fill="#ffffff" d="m753.684 83.1198l12.119629 -20.949448l12.11969 20.949448z" fill-rule="evenodd"/><path fill="#ffffff" fill-opacity="0.4372" d="m753.684 114.07898l12.119629 -20.949448l12.11969 20.949448z" fill-rule="evenodd"/><path fill="#ffffff" fill-opacity="0.4372" d="m753.684 145.03816l12.119629 -20.949455l12.11969 20.949455z" fill-rule="evenodd"/><path fill="#ffffff" d="m753.684 175.99733l12.119629 -20.949448l12.11969 20.949448z" fill-rule="evenodd"/><path fill="#ffffff" fill-opacity="0.4372" d="m753.684 206.95651l12.119629 -20.949448l12.11969 20.949448z" fill-rule="evenodd"/><path fill="#ffffff" fill-opacity="0.4372" d="m753.684 237.9157l12.119629 -20.949448l12.11969 20.949448z" fill-rule="evenodd"/><path fill="#ffffff" d="m716.9146 83.06449l12.119629 -20.949448l12.119629 20.949448z" fill-rule="evenodd"/><path fill="#ffffff" d="m716.9146 114.02367l12.119629 -20.949448l12.119629 20.949448z" fill-rule="evenodd"/><path fill="#ffffff" fill-opacity="0.1846" d="m716.9146 144.98285l12.119629 -20.949448l12.119629 20.949448z" fill-rule="evenodd"/><path fill="#ffffff" fill-opacity="0.4372" d="m716.9146 175.94203l12.119629 -20.949448l12.119629 20.949448z" fill-rule="evenodd"/><path fill="#ffffff" d="m716.9146 206.9012l12.119629 -20.949448l12.119629 20.949448z" fill-rule="evenodd"/><path fill="#ffffff" fill-opacity="0.1846" d="m716.9146 237.86038l12.119629 -20.949448l12.119629 20.949448z" fill-rule="evenodd"/><path fill="#ffffff" fill-opacity="0.4372" d="m716.9146 268.81955l12.119629 -20.949432l12.119629 20.949432z" fill-rule="evenodd"/><path fill="#ffffff" d="m790.3451 20.94954l12.119629 -20.94945l12.119629 20.94945z" fill-rule="evenodd"/><path fill="#ffffff" d="m790.3451 51.90872l12.119629 -20.94945l12.119629 20.94945z" fill-rule="evenodd"/><path fill="#ffffff" fill-opacity="0.1846" d="m790.3451 82.8679l12.119629 -20.949451l12.119629 20.949451z" fill-rule="evenodd"/><path fill="#ffffff" fill-opacity="0.4372" d="m790.3451 113.82707l12.119629 -20.949448l12.119629 20.949448z" fill-rule="evenodd"/><path fill="#ffffff" d="m790.3451 144.78625l12.119629 -20.949455l12.119629 20.949455z" fill-rule="evenodd"/><path fill="#ffffff" fill-opacity="0.1846" d="m790.3451 175.74544l12.119629 -20.949463l12.119629 20.949463z" fill-rule="evenodd"/><path fill="#ffffff" fill-opacity="0.4372" d="m790.3451 206.7046l12.119629 -20.949448l12.119629 20.949448z" fill-rule="evenodd"/><path fill="#ffffff" fill-opacity="0.4372" d="m716.91296 52.16062l12.119629 -20.94945l12.11969 20.94945z" fill-rule="evenodd"/><path fill="#ffffff" fill-opacity="0.4372" d="m108.03835 369.34436l12.119644 -20.949463l12.119652 20.949463z" fill-rule="evenodd"/><path fill="#ffffff" d="m108.03835 400.30353l12.119644 -20.949463l12.119652 20.949463z" fill-rule="evenodd"/><path fill="#ffffff" fill-opacity="0.4372" d="m108.03835 431.2627l12.119644 -20.949432l12.119652 20.949432z" fill-rule="evenodd"/><path fill="#ffffff" fill-opacity="0.4372" d="m108.03835 462.2219l12.119644 -20.949463l12.119652 20.949463z" fill-rule="evenodd"/><path fill="#ffffff" d="m108.03835 493.18106l12.119644 -20.949463l12.119652 20.949463z" fill-rule="evenodd"/><path fill="#ffffff" fill-opacity="0.4372" d="m108.03835 524.14026l12.119644 -20.949463l12.119652 20.949463z" fill-rule="evenodd"/><path fill="#ffffff" fill-opacity="0.4372" d="m108.03835 555.0994l12.119644 -20.949463l12.119652 20.949463z" fill-rule="evenodd"/><path fill="#ffffff" d="m71.26894 400.24823l12.119644 -20.949463l12.119644 20.949463z" fill-rule="evenodd"/><path fill="#ffffff" d="m71.26894 431.2074l12.119644 -20.949463l12.119644 20.949463z" fill-rule="evenodd"/><path fill="#ffffff" fill-opacity="0.1846" d="m71.26894 462.16656l12.119644 -20.949432l12.119644 20.949432z" fill-rule="evenodd"/><path fill="#ffffff" fill-opacity="0.4372" d="m71.26894 493.12576l12.119644 -20.949463l12.119644 20.949463z" fill-rule="evenodd"/><path fill="#ffffff" d="m71.26894 524.08496l12.119644 -20.949463l12.119644 20.949463z" fill-rule="evenodd"/><path fill="#ffffff" fill-opacity="0.1846" d="m71.26894 555.0441l12.119644 -20.949463l12.119644 20.949463z" fill-rule="evenodd"/><path fill="#ffffff" fill-opacity="0.4372" d="m71.26894 586.0033l12.119644 -20.949463l12.119644 20.949463z" fill-rule="evenodd"/><path fill="#ffffff" d="m144.6994 338.13327l12.119644 -20.949463l12.119644 20.949463z" fill-rule="evenodd"/><path fill="#ffffff" d="m144.6994 369.09244l12.119644 -20.949432l12.119644 20.949432z" fill-rule="evenodd"/><path fill="#ffffff" fill-opacity="0.1846" d="m144.6994 400.05164l12.119644 -20.949463l12.119644 20.949463z" fill-rule="evenodd"/><path fill="#ffffff" fill-opacity="0.4372" d="m144.6994 431.0108l12.119644 -20.949463l12.119644 20.949463z" fill-rule="evenodd"/><path fill="#ffffff" d="m144.6994 461.96997l12.119644 -20.949432l12.119644 20.949432z" fill-rule="evenodd"/><path fill="#ffffff" fill-opacity="0.1846" d="m144.6994 492.92917l12.119644 -20.949463l12.119644 20.949463z" fill-rule="evenodd"/><path fill="#ffffff" fill-opacity="0.4372" d="m144.6994 523.8883l12.119644 -20.949432l12.119644 20.949432z" fill-rule="evenodd"/><path fill="#ffffff" fill-opacity="0.4372" d="m71.2673 369.34436l12.119644 -20.949463l12.119644 20.949463z" fill-rule="evenodd"/></g></svg>