<svg version="1.1" viewBox="0.0 0.0 960.0 720.0" fill="none" stroke="none" stroke-linecap="square" stroke-miterlimit="10" xmlns:xlink="http://www.w3.org/1999/xlink" xmlns="http://www.w3.org/2000/svg"><clipPath id="p.0"><path d="m0 0l960.0 0l0 720.0l-960.0 0l0 -720.0z" clip-rule="nonzero"/></clipPath><g clip-path="url(#p.0)"><path fill="#0e2b2f" d="m0 0l960.0 0l0 720.0l-960.0 0z" fill-rule="evenodd"/><path fill="#fbdfdc" d="m269.31235 720.0l0 -720.0l447.62204 720.0z" fill-rule="evenodd"/><path stroke="#fbdfdc" stroke-width="1.0" stroke-linejoin="round" stroke-linecap="butt" d="m269.31235 720.0l0 -720.0l447.62204 720.0z" fill-rule="evenodd"/><path fill="#fbdfdc" d="m0 0l269.29135 0l0 720.0l-269.29135 0z" fill-rule="evenodd"/><path stroke="#fbdfdc" stroke-width="1.0" stroke-linejoin="round" stroke-linecap="butt" d="m0 0l269.29135 0l0 720.0l-269.29135 0z" fill-rule="evenodd"/><path fill="#ffffff" fill-opacity="0.4372" d="m841.72864 68.16062l12.119629 -20.949448l12.11969 20.949448z" fill-rule="evenodd"/><path fill="#ffffff" d="m841.72864 99.1198l12.119629 -20.949448l12.11969 20.949448z" fill-rule="evenodd"/><path fill="#ffffff" fill-opacity="0.4372" d="m841.72864 130.07898l12.119629 -20.949448l12.11969 20.949448z" fill-rule="evenodd"/><path fill="#ffffff" fill-opacity="0.4372" d="m841.72864 161.03816l12.119629 -20.949448l12.11969 20.949448z" fill-rule="evenodd"/><path fill="#ffffff" d="m841.72864 191.99733l12.119629 -20.949448l12.11969 20.949448z" fill-rule="evenodd"/><path fill="#ffffff" fill-opacity="0.4372" d="m841.72864 222.95651l12.119629 -20.949448l12.11969 20.949448z" fill-rule="evenodd"/><path fill="#ffffff" fill-opacity="0.4372" d="m841.72864 253.9157l12.119629 -20.949448l12.11969 20.949448z" fill-rule="evenodd"/><path fill="#ffffff" d="m804.9592 99.06449l12.119629 -20.949448l12.11969 20.949448z" fill-rule="evenodd"/><path fill="#ffffff" d="m804.9592 130.02367l12.119629 -20.949448l12.11969 20.949448z" fill-rule="evenodd"/><path fill="#ffffff" fill-opacity="0.1846" d="m804.9592 160.98285l12.119629 -20.949448l12.11969 20.949448z" fill-rule="evenodd"/><path fill="#ffffff" fill-opacity="0.4372" d="m804.9592 191.94203l12.119629 -20.949448l12.11969 20.949448z" fill-rule="evenodd"/><path fill="#ffffff" d="m804.9592 222.9012l12.119629 -20.949448l12.11969 20.949448z" fill-rule="evenodd"/><path fill="#ffffff" fill-opacity="0.1846" d="m804.9592 253.86038l12.119629 -20.949448l12.11969 20.949448z" fill-rule="evenodd"/><path fill="#ffffff" fill-opacity="0.4372" d="m804.9592 284.81955l12.119629 -20.949432l12.11969 20.949432z" fill-rule="evenodd"/><path fill="#ffffff" d="m878.3897 36.94954l12.119629 -20.94945l12.119629 20.94945z" fill-rule="evenodd"/><path fill="#ffffff" d="m878.3897 67.908714l12.119629 -20.949448l12.119629 20.949448z" fill-rule="evenodd"/><path fill="#ffffff" fill-opacity="0.1846" d="m878.3897 98.8679l12.119629 -20.949448l12.119629 20.949448z" fill-rule="evenodd"/><path fill="#ffffff" fill-opacity="0.4372" d="m878.3897 129.82707l12.119629 -20.949448l12.119629 20.949448z" fill-rule="evenodd"/><path fill="#ffffff" d="m878.3897 160.78625l12.119629 -20.949448l12.119629 20.949448z" fill-rule="evenodd"/><path fill="#ffffff" fill-opacity="0.1846" d="m878.3897 191.74544l12.119629 -20.949463l12.119629 20.949463z" fill-rule="evenodd"/><path fill="#ffffff" fill-opacity="0.4372" d="m878.3897 222.7046l12.119629 -20.949448l12.119629 20.949448z" fill-rule="evenodd"/><path fill="#ffffff" fill-opacity="0.4372" d="m804.9576 68.16062l12.119629 -20.949448l12.11969 20.949448z" fill-rule="evenodd"/><path fill="#ffffff" fill-opacity="0.4372" d="m301.53705 594.7118l12.119629 -20.949463l12.119659 20.949463z" fill-rule="evenodd"/><path fill="#ffffff" d="m301.53705 625.67096l12.119629 -20.949402l12.119659 20.949402z" fill-rule="evenodd"/><path fill="#ffffff" fill-opacity="0.4372" d="m301.53705 656.6302l12.119629 -20.949463l12.119659 20.949463z" fill-rule="evenodd"/><path fill="#ffffff" fill-opacity="0.4372" d="m301.53705 687.58936l12.119629 -20.949463l12.119659 20.949463z" fill-rule="evenodd"/><path fill="#ffffff" d="m301.53705 718.5485l12.119629 -20.949463l12.119659 20.949463z" fill-rule="evenodd"/><path fill="#ffffff" fill-opacity="0.4372" d="m301.53705 749.5077l12.119629 -20.949463l12.119659 20.949463z" fill-rule="evenodd"/><path fill="#ffffff" fill-opacity="0.4372" d="m301.53705 780.46686l12.119629 -20.949463l12.119659 20.949463z" fill-rule="evenodd"/><path fill="#ffffff" d="m264.76764 625.61566l12.119629 -20.949463l12.119659 20.949463z" fill-rule="evenodd"/><path fill="#ffffff" d="m264.76764 656.5748l12.119629 -20.949402l12.119659 20.949402z" fill-rule="evenodd"/><path fill="#ffffff" fill-opacity="0.1846" d="m264.76764 687.53406l12.119629 -20.949463l12.119659 20.949463z" fill-rule="evenodd"/><path fill="#ffffff" fill-opacity="0.4372" d="m264.76764 718.4932l12.119629 -20.949463l12.119659 20.949463z" fill-rule="evenodd"/><path fill="#ffffff" d="m264.76764 749.4524l12.119629 -20.949463l12.119659 20.949463z" fill-rule="evenodd"/><path fill="#ffffff" fill-opacity="0.1846" d="m264.76764 780.41156l12.119629 -20.949463l12.119659 20.949463z" fill-rule="evenodd"/><path fill="#ffffff" fill-opacity="0.4372" d="m264.76764 811.3707l12.119629 -20.949463l12.119659 20.949463z" fill-rule="evenodd"/><path fill="#ffffff" d="m338.1981 563.50073l12.119629 -20.949463l12.119659 20.949463z" fill-rule="evenodd"/><path fill="#ffffff" d="m338.1981 594.4599l12.119629 -20.949463l12.119659 20.949463z" fill-rule="evenodd"/><path fill="#ffffff" fill-opacity="0.1846" d="m338.1981 625.41907l12.119629 -20.949463l12.119659 20.949463z" fill-rule="evenodd"/><path fill="#ffffff" fill-opacity="0.4372" d="m338.1981 656.37823l12.119629 -20.949402l12.119659 20.949402z" fill-rule="evenodd"/><path fill="#ffffff" d="m338.1981 687.33746l12.119629 -20.949463l12.119659 20.949463z" fill-rule="evenodd"/><path fill="#ffffff" fill-opacity="0.1846" d="m338.1981 718.29663l12.119629 -20.949463l12.119659 20.949463z" fill-rule="evenodd"/><path fill="#ffffff" fill-opacity="0.4372" d="m338.1981 749.2558l12.119629 -20.949463l12.119659 20.949463z" fill-rule="evenodd"/><path fill="#ffffff" fill-opacity="0.4372" d="m264.766 594.7118l12.119659 -20.949463l12.119629 20.949463z" fill-rule="evenodd"/></g></svg>