<svg version="1.1" viewBox="0.0 0.0 100.0 100.0" fill="none" stroke="none" stroke-linecap="square" stroke-miterlimit="10" xmlns:xlink="http://www.w3.org/1999/xlink" xmlns="http://www.w3.org/2000/svg"><clipPath id="p.0"><path d="m0 0l100.0 0l0 100.0l-100.0 0l0 -100.0z" clip-rule="nonzero"/></clipPath><g clip-path="url(#p.0)"><path fill="#000000" fill-opacity="0.0" d="m0 0l100.0 0l0 100.0l-100.0 0z" fill-rule="evenodd"/><g filter="url(#shadowFilter-p.1)"><use xlink:href="#p.1" transform="matrix(1.0 0.0 0.0 1.0 0.0 2.0)"/></g><defs><filter id="shadowFilter-p.1" filterUnits="userSpaceOnUse"><feGaussianBlur in="SourceAlpha" stdDeviation="2.0" result="blur"/><feComponentTransfer in="blur" color-interpolation-filters="sRGB"><feFuncR type="linear" slope="0" intercept="0.0"/><feFuncG type="linear" slope="0" intercept="0.0"/><feFuncB type="linear" slope="0" intercept="0.0"/><feFuncA type="linear" slope="0.5" intercept="0"/></feComponentTransfer></filter></defs><g id="p.1"><path fill="#000000" fill-opacity="0.0" d="m0 0l100.0 0l0 99.2126l-100.0 0z" fill-rule="evenodd"/><path fill="#fbdfdc" d="m59.01938 79.15937q-6.234375 0 -6.234375 -5.359375q0 -1.765625 0.515625 -4.03125q0.53125 -2.28125 1.484375 -5.890625q1.125 -3.765625 1.671875 -6.390625q0.5625 -2.640625 0.5625 -4.734375q0 -5.4375 -4.796875 -5.4375q-1.28125 0 -2.640625 0.328125l-6.390625 30.15625l-11.53125 0l10.890625 -50.875l11.828125 -1.609375l-3.921875 18.484375l0.640625 0q3.125 0 5.765625 -2.15625q2.640625 -2.15625 4.109375 -5.390625q1.484375 -3.25 1.484375 -6.375q0 -3.671875 -2.203125 -6.03125q-2.1875 -2.359375 -6.59375 -2.359375q-6.46875 0 -11.359375 2.3125q-4.875 2.3125 -7.5625 6.71875q-2.671875 4.40625 -2.671875 10.40625q0 2.953125 0.5625 4.125q0.5625 1.15625 0.5625 1.3125q-4.328125 0 -6.453125 -1.796875q-2.109375 -1.8125 -2.109375 -5.96875q0 -5.109375 4.1875 -9.953125q4.203125 -4.84375 10.765625 -7.84375q6.5625 -3.0 13.125 -3.0q6.0 0 10.078125 1.765625q4.078125 1.75 6.078125 4.671875q2.0 2.921875 2.0 6.359375q0 3.765625 -2.328125 7.53125q-2.3125 3.75 -6.3125 6.15625q3.046875 0.875 4.28125 2.921875q1.234375 2.03125 1.234375 5.078125q0 2.3125 -0.5625 4.921875q-0.546875 2.59375 -1.59375 6.4375q-0.640625 2.46875 -1.203125 4.875q-0.546875 2.40625 -0.546875 4.0q0 1.84375 0.828125 3.28125q0.84375 1.4375 2.28125 2.0q-4.875 1.359375 -7.921875 1.359375z" fill-rule="nonzero"/></g></g></svg>